<?xml version="1.0" encoding="UTF-8"?>
<svg width="312px" height="152px" viewBox="0 0 312 152" version="1.1" xmlns="http://www.w3.org/2000/svg" xmlns:xlink="http://www.w3.org/1999/xlink">
    <title>3</title>
    <g id="Page-1" stroke="none" stroke-width="1" fill="none" fill-rule="evenodd">
        <g id="A4" transform="translate(-142, -556)" fill="#FFFFFF">
            <g id="3" transform="translate(142, 556)">
                <path d="M236,128 C249.989659,128 263.072812,122.466293 272.769553,112.769553 C275.181601,110.357504 277.353035,107.715046 279.249255,104.882539 C282.936086,99.3752771 290.389371,97.8995263 295.896632,101.586357 C301.403894,105.273188 302.879645,112.726473 299.192814,118.233735 C296.42508,122.368082 293.257668,126.222563 289.740115,129.740115 C275.58712,143.893111 256.420281,152 236,152 C194.026359,152 160,117.973641 160,76 C160,34.026359 194.026359,0 236,0 C277.553905,0 311.318678,33.3492345 311.989818,74.743201 L312,76 C312,82.5254567 306.791456,87.8343928 300.304975,87.9962001 L300,88 L185.391637,88.0007716 C190.809227,110.933983 211.411623,128 236,128 Z M236,24 C211.411265,24 190.808628,41.0665137 185.391401,64.0002291 L286.608599,64.0002291 C281.191372,41.0665137 260.588735,24 236,24 Z" id="Combined-Shape" fill-rule="nonzero"></path>
                <path d="M136,0 C142.627417,0 148,5.372583 148,12 C148,48.7832078 121.162425,79.2981642 86.0001919,85.031953 L86,140 C86,146.627417 80.627417,152 74,152 C67.372583,152 62,146.627417 62,140 L62.0008055,85.0321156 C26.8380823,79.2987413 0,48.7835556 0,12 C0,5.372583 5.372583,0 12,0 C18.627417,0 24,5.372583 24,12 C24,39.6142375 46.3857625,62 74,62 C101.614237,62 124,39.6142375 124,12 C124,5.372583 129.372583,0 136,0 Z" id="Combined-Shape"></path>
            </g>
        </g>
    </g>
</svg>