<?xml version="1.0" encoding="UTF-8"?>
<svg width="321px" height="152px" viewBox="0 0 321 152" version="1.1" xmlns="http://www.w3.org/2000/svg" xmlns:xlink="http://www.w3.org/1999/xlink">
    <title>logo</title>
    <g id="Page-1" stroke="none" stroke-width="1" fill="none" fill-rule="evenodd">
        <g id="A4" transform="translate(-141, -556)">
            <g id="编组" transform="translate(42, 376)">
                <g id="logo" transform="translate(99, 180)">
                    <rect id="矩形" x="5" y="0" width="315" height="152"></rect>
                    <path d="M255,128 C268.989659,128 282.072812,122.466293 291.769553,112.769553 C294.181601,110.357504 296.353035,107.715046 298.249255,104.882539 C301.936086,99.3752771 309.389371,97.8995263 314.896632,101.586357 C320.403894,105.273188 321.879645,112.726473 318.192814,118.233735 C315.42508,122.368082 312.257668,126.222563 308.740115,129.740115 C294.58712,143.893111 275.420281,152 255,152 C213.026359,152 179,117.973641 179,76 C179,34.026359 213.026359,0 255,0 C296.553905,0 330.318678,33.3492345 330.989818,74.743201 L331,76 C331,82.5254567 325.791456,87.8343928 319.304975,87.9962001 L319,88 L204.391637,88.0007716 C209.809227,110.933983 230.411623,128 255,128 Z M255,24 C230.411265,24 209.808628,41.0665137 204.391401,64.0002291 L305.608599,64.0002291 C300.191372,41.0665137 279.588735,24 255,24 Z" id="Combined-Shape" fill="#FFFFFF" fill-rule="nonzero"></path>
                    <path d="M152,0 C158.627417,0 164,5.372583 164,12 C164,48.7832078 137.162425,79.2981642 102.000192,85.031953 L102,140 C102,146.627417 96.627417,152 90,152 C83.372583,152 78,146.627417 78,140 L78.0008055,85.0321156 C42.8380823,79.2987413 16,48.7835556 16,12 C16,5.372583 21.372583,0 28,0 C34.627417,0 40,5.372583 40,12 C40,39.6142375 62.3857625,62 90,62 C117.614237,62 140,39.6142375 140,12 C140,5.372583 145.372583,0 152,0 Z" id="Combined-Shape" fill="#FFFFFF"></path>
                </g>
            </g>
        </g>
    </g>
</svg>